<svg width="18" height="18" viewBox="0 0 18 18" fill="none" xmlns="http://www.w3.org/2000/svg">
<path fill-rule="evenodd" clip-rule="evenodd" d="M9.0008 0.138428C6.68326 0.138428 6.39242 0.148561 5.48219 0.189984C4.57373 0.231584 3.95364 0.375408 3.41105 0.586432C2.8498 0.80439 2.37371 1.09595 1.89939 1.57044C1.42472 2.04476 1.13316 2.52085 0.914494 3.08192C0.702936 3.62469 0.558935 4.24496 0.518045 5.15306C0.477334 6.06329 0.466667 6.35431 0.466667 8.67185C0.466667 10.9894 0.476978 11.2793 0.518223 12.1896C0.560001 13.098 0.703825 13.7181 0.914672 14.2607C1.13281 14.822 1.42437 15.2981 1.89886 15.7724C2.373 16.247 2.84909 16.5393 3.40999 16.7573C3.95293 16.9683 4.5732 17.1121 5.48147 17.1537C6.39171 17.1951 6.68238 17.2053 8.99973 17.2053C11.3174 17.2053 11.6074 17.1951 12.5176 17.1537C13.4261 17.1121 14.0469 16.9683 14.5898 16.7573C15.1509 16.5393 15.6263 16.247 16.1004 15.7724C16.5751 15.2981 16.8667 14.822 17.0853 14.2609C17.2951 13.7181 17.4391 13.0979 17.4818 12.1898C17.5227 11.2795 17.5333 10.9894 17.5333 8.67185C17.5333 6.35431 17.5227 6.06347 17.4818 5.15323C17.4391 4.24478 17.2951 3.62469 17.0853 3.0821C16.8667 2.52085 16.5751 2.04476 16.1004 1.57044C15.6258 1.09577 15.1511 0.804212 14.5893 0.586432C14.0453 0.375408 13.4248 0.231584 12.5164 0.189984C11.6062 0.148561 11.3164 0.138428 8.99813 0.138428H9.0008ZM8.23524 1.6762C8.46245 1.67584 8.71596 1.6762 9.00076 1.6762C11.2792 1.6762 11.5492 1.68438 12.449 1.72526C13.281 1.76331 13.7325 1.90233 14.0333 2.01913C14.4316 2.1738 14.7155 2.35869 15.014 2.65736C15.3127 2.95603 15.4975 3.24048 15.6526 3.63871C15.7694 3.93915 15.9086 4.39071 15.9464 5.22272C15.9873 6.12229 15.9962 6.39251 15.9962 8.66987C15.9962 10.9472 15.9873 11.2175 15.9464 12.117C15.9084 12.949 15.7694 13.4006 15.6526 13.701C15.4979 14.0993 15.3127 14.3828 15.014 14.6813C14.7153 14.98 14.4318 15.1649 14.0333 15.3195C13.7329 15.4369 13.281 15.5755 12.449 15.6136C11.5494 15.6545 11.2792 15.6634 9.00076 15.6634C6.72216 15.6634 6.45212 15.6545 5.55255 15.6136C4.72054 15.5752 4.26898 15.4362 3.968 15.3194C3.56977 15.1647 3.28533 14.9798 2.98666 14.6811C2.68799 14.3825 2.5031 14.0987 2.34807 13.7003C2.23127 13.3999 2.09207 12.9483 2.0542 12.1163C2.01331 11.2167 2.00514 10.9465 2.00514 8.66774C2.00514 6.38896 2.01331 6.12016 2.0542 5.22059C2.09225 4.38858 2.23127 3.93702 2.34807 3.63622C2.50274 3.23799 2.68799 2.95354 2.98666 2.65487C3.28533 2.3562 3.56977 2.17131 3.968 2.01629C4.2688 1.89896 4.72054 1.76029 5.55255 1.72206C6.33976 1.68651 6.64483 1.67584 8.23524 1.67406V1.6762ZM13.5558 3.0931C12.9905 3.0931 12.5318 3.55124 12.5318 4.11676C12.5318 4.6821 12.9905 5.14077 13.5558 5.14077C14.1212 5.14077 14.5798 4.6821 14.5798 4.11676C14.5798 3.55142 14.1212 3.0931 13.5558 3.0931ZM9.00082 4.28956C6.5807 4.28956 4.61855 6.25171 4.61855 8.67183C4.61855 11.0919 6.5807 13.0532 9.00082 13.0532C11.4209 13.0532 13.3824 11.0919 13.3824 8.67183C13.3824 6.25171 11.4209 4.28956 9.00082 4.28956ZM9.00078 5.82735C10.5716 5.82735 11.8453 7.10079 11.8453 8.67183C11.8453 10.2427 10.5716 11.5163 9.00078 11.5163C7.42974 11.5163 6.15631 10.2427 6.15631 8.67183C6.15631 7.10079 7.42974 5.82735 9.00078 5.82735Z" fill="white"/>
</svg>
